{
    "asset" : {
        "generator" : "Khronos glTF Blender I/O v1.3.48",
        "version" : "2.0"
    },
    "scene" : 0,
    "scenes" : [
        {
            "name" : "Scene",
            "nodes" : [
                0,
                1,
                2,
                3,
                4,
                5
            ]
        }
    ],
    "nodes" : [
        {
            "mesh" : 0,
            "name" : "Carbon_Atom",
            "scale" : [
                0.38499999046325684,
                0.38499999046325684,
                0.38499999046325684
            ],
            "translation" : [
                -0.41920000314712524,
                -0.00139999995008111,
                0.0560000017285347
            ]
        },
        {
            "mesh" : 1,
            "name" : "Carbon_sticks",
            "rotation" : [
                0.43984389305114746,
                0.08427438139915466,
                -0.5540319681167603,
                0.7017719745635986
            ],
            "translation" : [
                -0.4404935836791992,
                -0.0013793067773804069,
                0.04290103167295456
            ]
        },
        {
            "mesh" : 2,
            "name" : "Oxygen_Atom",
            "scale" : [
                0.36500000953674316,
                0.36500000953674316,
                0.36500000953674316
            ],
            "translation" : [
                -1.4481998682022095,
                -0.00039999998989515007,
                -0.5769999623298645
            ]
        },
        {
            "mesh" : 3,
            "name" : "Oxygen_sticks",
            "rotation" : [
                0.43984371423721313,
                0.08427464216947556,
                -0.5540321469306946,
                0.7017719149589539
            ],
            "translation" : [
                -0.9941267371177673,
                -0.0008412760798819363,
                -0.2976721227169037
            ]
        },
        {
            "mesh" : 4,
            "name" : "Hydrogen_Atom",
            "scale" : [
                0.1599999964237213,
                0.1599999964237213,
                0.1599999964237213
            ],
            "translation" : [
                -0.45020002126693726,
                0.0026000000070780516,
                1.1360000371932983
            ]
        },
        {
            "mesh" : 5,
            "name" : "Hydrogen_sticks",
            "rotation" : [
                -0.6576250791549683,
                -0.28111937642097473,
                0.26340192556381226,
                0.6473951935768127
            ],
            "translation" : [
                -0.4356977641582489,
                0.0007287382031790912,
                0.6307593584060669
            ]
        }
    ],
    "materials" : [
        {
            "doubleSided" : true,
            "name" : "Carbon",
            "pbrMetallicRoughness" : {}
        },
        {
            "doubleSided" : true,
            "name" : "Oxygen",
            "pbrMetallicRoughness" : {}
        },
        {
            "doubleSided" : true,
            "name" : "Hydrogen",
            "pbrMetallicRoughness" : {}
        }
    ],
    "meshes" : [
        {
            "name" : "SurfSphere",
            "primitives" : [
                {
                    "attributes" : {
                        "POSITION" : 0,
                        "NORMAL" : 1,
                        "TEXCOORD_0" : 2
                    },
                    "indices" : 3,
                    "material" : 0
                }
            ]
        },
        {
            "name" : "Carbon_sticks_cylinder",
            "primitives" : [
                {
                    "attributes" : {
                        "POSITION" : 4,
                        "NORMAL" : 5
                    },
                    "indices" : 6,
                    "material" : 0
                }
            ]
        },
        {
            "name" : "SurfSphere.001",
            "primitives" : [
                {
                    "attributes" : {
                        "POSITION" : 7,
                        "NORMAL" : 8,
                        "TEXCOORD_0" : 9
                    },
                    "indices" : 10,
                    "material" : 1
                }
            ]
        },
        {
            "name" : "Oxygen_sticks_cylinder",
            "primitives" : [
                {
                    "attributes" : {
                        "POSITION" : 11,
                        "NORMAL" : 12
                    },
                    "indices" : 13,
                    "material" : 1
                }
            ]
        },
        {
            "name" : "SurfSphere.002",
            "primitives" : [
                {
                    "attributes" : {
                        "POSITION" : 14,
                        "NORMAL" : 15,
                        "TEXCOORD_0" : 16
                    },
                    "indices" : 10,
                    "material" : 2
                }
            ]
        },
        {
            "name" : "Hydrogen_sticks_cylinder",
            "primitives" : [
                {
                    "attributes" : {
                        "POSITION" : 17,
                        "NORMAL" : 18
                    },
                    "indices" : 19,
                    "material" : 2
                }
            ]
        }
    ],
    "accessors" : [
        {
            "bufferView" : 0,
            "componentType" : 5126,
            "count" : 1978,
            "max" : [
                0.9997097849845886,
                1,
                0.9997097849845886
            ],
            "min" : [
                -0.9997099041938782,
                -1,
                -0.9997097849845886
            ],
            "type" : "VEC3"
        },
        {
            "bufferView" : 1,
            "componentType" : 5126,
            "count" : 1978,
            "type" : "VEC3"
        },
        {
            "bufferView" : 2,
            "componentType" : 5126,
            "count" : 1978,
            "type" : "VEC2"
        },
        {
            "bufferView" : 3,
            "componentType" : 5123,
            "count" : 11136,
            "type" : "SCALAR"
        },
        {
            "bufferView" : 4,
            "componentType" : 5126,
            "count" : 114,
            "max" : [
                0.5090476274490356,
                0.4611625075340271,
                0.412149041891098
            ],
            "min" : [
                -0.41861891746520996,
                -0.6250001192092896,
                -0.5053584575653076
            ],
            "type" : "VEC3"
        },
        {
            "bufferView" : 5,
            "componentType" : 5126,
            "count" : 114,
            "type" : "VEC3"
        },
        {
            "bufferView" : 6,
            "componentType" : 5123,
            "count" : 342,
            "type" : "SCALAR"
        },
        {
            "bufferView" : 7,
            "componentType" : 5126,
            "count" : 3956,
            "max" : [
                7.05176305770874,
                1,
                0.9997097849845886
            ],
            "min" : [
                -0.9997099041938782,
                -1,
                -1.0134084224700928
            ],
            "type" : "VEC3"
        },
        {
            "bufferView" : 8,
            "componentType" : 5126,
            "count" : 3956,
            "type" : "VEC3"
        },
        {
            "bufferView" : 9,
            "componentType" : 5126,
            "count" : 3956,
            "type" : "VEC2"
        },
        {
            "bufferView" : 10,
            "componentType" : 5123,
            "count" : 22272,
            "type" : "SCALAR"
        },
        {
            "bufferView" : 11,
            "componentType" : 5126,
            "count" : 114,
            "max" : [
                0.9393160343170166,
                1.8503133058547974,
                0.09965845197439194
            ],
            "min" : [
                -0.09863613545894623,
                -0.6250001192092896,
                -0.9323810935020447
            ],
            "type" : "VEC3"
        },
        {
            "bufferView" : 12,
            "componentType" : 5126,
            "count" : 114,
            "type" : "VEC3"
        },
        {
            "bufferView" : 13,
            "componentType" : 5123,
            "count" : 342,
            "type" : "SCALAR"
        },
        {
            "bufferView" : 14,
            "componentType" : 5126,
            "count" : 3956,
            "max" : [
                13.543460845947266,
                1,
                0.9997097849845886
            ],
            "min" : [
                -0.9997099041938782,
                -1.0187499523162842,
                -8.305959701538086
            ],
            "type" : "VEC3"
        },
        {
            "bufferView" : 15,
            "componentType" : 5126,
            "count" : 3956,
            "type" : "VEC3"
        },
        {
            "bufferView" : 16,
            "componentType" : 5126,
            "count" : 3956,
            "type" : "VEC2"
        },
        {
            "bufferView" : 17,
            "componentType" : 5126,
            "count" : 76,
            "max" : [
                1.4882943630218506,
                1.0584921836853027,
                0.09965845197439194
            ],
            "min" : [
                -0.09863613545894623,
                -0.524999737739563,
                -1.5009158849716187
            ],
            "type" : "VEC3"
        },
        {
            "bufferView" : 18,
            "componentType" : 5126,
            "count" : 76,
            "type" : "VEC3"
        },
        {
            "bufferView" : 19,
            "componentType" : 5123,
            "count" : 228,
            "type" : "SCALAR"
        }
    ],
    "bufferViews" : [
        {
            "buffer" : 0,
            "byteLength" : 23736,
            "byteOffset" : 0
        },
        {
            "buffer" : 0,
            "byteLength" : 23736,
            "byteOffset" : 23736
        },
        {
            "buffer" : 0,
            "byteLength" : 15824,
            "byteOffset" : 47472
        },
        {
            "buffer" : 0,
            "byteLength" : 22272,
            "byteOffset" : 63296
        },
        {
            "buffer" : 0,
            "byteLength" : 1368,
            "byteOffset" : 85568
        },
        {
            "buffer" : 0,
            "byteLength" : 1368,
            "byteOffset" : 86936
        },
        {
            "buffer" : 0,
            "byteLength" : 684,
            "byteOffset" : 88304
        },
        {
            "buffer" : 0,
            "byteLength" : 47472,
            "byteOffset" : 88988
        },
        {
            "buffer" : 0,
            "byteLength" : 47472,
            "byteOffset" : 136460
        },
        {
            "buffer" : 0,
            "byteLength" : 31648,
            "byteOffset" : 183932
        },
        {
            "buffer" : 0,
            "byteLength" : 44544,
            "byteOffset" : 215580
        },
        {
            "buffer" : 0,
            "byteLength" : 1368,
            "byteOffset" : 260124
        },
        {
            "buffer" : 0,
            "byteLength" : 1368,
            "byteOffset" : 261492
        },
        {
            "buffer" : 0,
            "byteLength" : 684,
            "byteOffset" : 262860
        },
        {
            "buffer" : 0,
            "byteLength" : 47472,
            "byteOffset" : 263544
        },
        {
            "buffer" : 0,
            "byteLength" : 47472,
            "byteOffset" : 311016
        },
        {
            "buffer" : 0,
            "byteLength" : 31648,
            "byteOffset" : 358488
        },
        {
            "buffer" : 0,
            "byteLength" : 912,
            "byteOffset" : 390136
        },
        {
            "buffer" : 0,
            "byteLength" : 912,
            "byteOffset" : 391048
        },
        {
            "buffer" : 0,
            "byteLength" : 456,
            "byteOffset" : 391960
        }
    ],
    "buffers" : [
        {
            "byteLength" : 392416,
            "uri" : "data:application/octet-stream;base64,"
        }
    ]
}
