{
    "asset" : {
        "generator" : "Khronos glTF Blender I/O v1.3.48",
        "version" : "2.0"
    },
    "scene" : 0,
    "scenes" : [
        {
            "name" : "Scene",
            "nodes" : [
                0,
                1,
                2,
                3,
                4,
                5,
                6,
                7
            ]
        }
    ],
    "nodes" : [
        {
            "mesh" : 0,
            "name" : "Nitrogen_Atom",
            "scale" : [
                0.375,
                0.375,
                0.375
            ],
            "translation" : [
                1.5458000898361206,
                -0.10090000927448273,
                -0.34800004959106445
            ]
        },
        {
            "mesh" : 1,
            "name" : "Nitrogen_sticks",
            "rotation" : [
                0.0828489288687706,
                0.4859369099140167,
                -0.7085066437721252,
                0.5049947500228882
            ],
            "translation" : [
                1.0084303617477417,
                -0.08895845711231232,
                0.060309045016765594
            ]
        },
        {
            "mesh" : 2,
            "name" : "Carbon_Atom",
            "scale" : [
                0.38499999046325684,
                0.38499999046325684,
                0.38499999046325684
            ],
            "translation" : [
                0.3757999837398529,
                -0.07489999383687973,
                0.5410000085830688
            ]
        },
        {
            "mesh" : 3,
            "name" : "Carbon_sticks",
            "rotation" : [
                -0.047626398503780365,
                -0.29463502764701843,
                0.9539477825164795,
                0.030092278495430946
            ],
            "translation" : [
                0.39120906591415405,
                0.3579987585544586,
                0.8376246690750122
            ]
        },
        {
            "mesh" : 4,
            "name" : "Oxygen_Atom",
            "scale" : [
                0.36500000953674316,
                0.36500000953674316,
                0.36500000953674316
            ],
            "translation" : [
                -0.8141999244689941,
                -0.08990000188350677,
                -1.4929999113082886
            ]
        },
        {
            "mesh" : 5,
            "name" : "Oxygen_sticks",
            "rotation" : [
                0.6643942594528198,
                -0.26766031980514526,
                -0.22612051665782928,
                0.6601573824882507
            ],
            "translation" : [
                -0.8446478843688965,
                -0.08195706456899643,
                -0.9608231782913208
            ]
        },
        {
            "mesh" : 6,
            "name" : "Hydrogen_Atom",
            "scale" : [
                0.1599999964237213,
                0.1599999964237213,
                0.1599999964237213
            ],
            "translation" : [
                1.5238001346588135,
                0.6710999608039856,
                -0.9959999322891235
            ]
        },
        {
            "mesh" : 7,
            "name" : "Hydrogen_sticks",
            "rotation" : [
                0.468157023191452,
                0.0637083500623703,
                -0.5299332141876221,
                0.704230785369873
            ],
            "translation" : [
                -2.627279043197632,
                -0.048900000751018524,
                -0.08350343257188797
            ]
        }
    ],
    "materials" : [
        {
            "doubleSided" : true,
            "name" : "Nitrogen",
            "pbrMetallicRoughness" : {}
        },
        {
            "doubleSided" : true,
            "name" : "Carbon",
            "pbrMetallicRoughness" : {}
        },
        {
            "doubleSided" : true,
            "name" : "Oxygen",
            "pbrMetallicRoughness" : {}
        },
        {
            "doubleSided" : true,
            "name" : "Hydrogen",
            "pbrMetallicRoughness" : {}
        }
    ],
    "meshes" : [
        {
            "name" : "SurfSphere",
            "primitives" : [
                {
                    "attributes" : {
                        "POSITION" : 0,
                        "NORMAL" : 1,
                        "TEXCOORD_0" : 2
                    },
                    "indices" : 3,
                    "material" : 0
                }
            ]
        },
        {
            "name" : "Nitrogen_sticks_cylinder",
            "primitives" : [
                {
                    "attributes" : {
                        "POSITION" : 4,
                        "NORMAL" : 5
                    },
                    "indices" : 6,
                    "material" : 0
                }
            ]
        },
        {
            "name" : "Carbon_Atom",
            "primitives" : [
                {
                    "attributes" : {
                        "POSITION" : 7,
                        "NORMAL" : 8,
                        "TEXCOORD_0" : 9
                    },
                    "indices" : 10,
                    "material" : 1
                }
            ]
        },
        {
            "name" : "Carbon_sticks",
            "primitives" : [
                {
                    "attributes" : {
                        "POSITION" : 11,
                        "NORMAL" : 12
                    },
                    "indices" : 13,
                    "material" : 1
                }
            ]
        },
        {
            "name" : "Oxygen_Atom",
            "primitives" : [
                {
                    "attributes" : {
                        "POSITION" : 14,
                        "NORMAL" : 15,
                        "TEXCOORD_0" : 16
                    },
                    "indices" : 10,
                    "material" : 2
                }
            ]
        },
        {
            "name" : "Oxygen_sticks",
            "primitives" : [
                {
                    "attributes" : {
                        "POSITION" : 17,
                        "NORMAL" : 18
                    },
                    "indices" : 19,
                    "material" : 2
                }
            ]
        },
        {
            "name" : "SurfSphere.003",
            "primitives" : [
                {
                    "attributes" : {
                        "POSITION" : 20,
                        "NORMAL" : 21,
                        "TEXCOORD_0" : 22
                    },
                    "indices" : 23,
                    "material" : 3
                }
            ]
        },
        {
            "name" : "Hydrogen_sticks_cylinder",
            "primitives" : [
                {
                    "attributes" : {
                        "POSITION" : 24,
                        "NORMAL" : 25
                    },
                    "indices" : 26,
                    "material" : 3
                }
            ]
        }
    ],
    "accessors" : [
        {
            "bufferView" : 0,
            "componentType" : 5126,
            "count" : 1978,
            "max" : [
                0.9997097849845886,
                1,
                0.9997097849845886
            ],
            "min" : [
                -0.9997099041938782,
                -1,
                -0.9997097849845886
            ],
            "type" : "VEC3"
        },
        {
            "bufferView" : 1,
            "componentType" : 5126,
            "count" : 1978,
            "type" : "VEC3"
        },
        {
            "bufferView" : 2,
            "componentType" : 5126,
            "count" : 1978,
            "type" : "VEC2"
        },
        {
            "bufferView" : 3,
            "componentType" : 5123,
            "count" : 11136,
            "type" : "SCALAR"
        },
        {
            "bufferView" : 4,
            "componentType" : 5126,
            "count" : 114,
            "max" : [
                0.09999997168779373,
                0.9650853872299194,
                0.40516579151153564
            ],
            "min" : [
                -0.4665757119655609,
                -0.07500007003545761,
                -0.5482038259506226
            ],
            "type" : "VEC3"
        },
        {
            "bufferView" : 5,
            "componentType" : 5126,
            "count" : 114,
            "type" : "VEC3"
        },
        {
            "bufferView" : 6,
            "componentType" : 5123,
            "count" : 342,
            "type" : "SCALAR"
        },
        {
            "bufferView" : 7,
            "componentType" : 5126,
            "count" : 3956,
            "max" : [
                0.9997097849845886,
                1.0077921152114868,
                0.9997097849845886
            ],
            "min" : [
                -4.269839286804199,
                -1,
                -3.1503593921661377
            ],
            "type" : "VEC3"
        },
        {
            "bufferView" : 8,
            "componentType" : 5126,
            "count" : 3956,
            "type" : "VEC3"
        },
        {
            "bufferView" : 9,
            "componentType" : 5126,
            "count" : 3956,
            "type" : "VEC2"
        },
        {
            "bufferView" : 10,
            "componentType" : 5123,
            "count" : 22272,
            "type" : "SCALAR"
        },
        {
            "bufferView" : 11,
            "componentType" : 5126,
            "count" : 228,
            "max" : [
                1.9625943899154663,
                1.4824984073638916,
                0.5491281151771545
            ],
            "min" : [
                -0.6048406958580017,
                -0.02500000037252903,
                -1.1342567205429077
            ],
            "type" : "VEC3"
        },
        {
            "bufferView" : 12,
            "componentType" : 5126,
            "count" : 228,
            "type" : "VEC3"
        },
        {
            "bufferView" : 13,
            "componentType" : 5123,
            "count" : 684,
            "type" : "SCALAR"
        },
        {
            "bufferView" : 14,
            "componentType" : 5126,
            "count" : 3956,
            "max" : [
                0.9997097849845886,
                1.1123287677764893,
                5.955874443054199
            ],
            "min" : [
                -4.476422309875488,
                -0.9999999403953552,
                -0.9997097849845886
            ],
            "type" : "VEC3"
        },
        {
            "bufferView" : 15,
            "componentType" : 5126,
            "count" : 3956,
            "type" : "VEC3"
        },
        {
            "bufferView" : 16,
            "componentType" : 5126,
            "count" : 3956,
            "type" : "VEC2"
        },
        {
            "bufferView" : 17,
            "componentType" : 5126,
            "count" : 114,
            "max" : [
                0.10000000149011612,
                1.4604856967926025,
                1.106604814529419
            ],
            "min" : [
                -1.2847352027893066,
                -0.6250001192092896,
                -0.09965870529413223
            ],
            "type" : "VEC3"
        },
        {
            "bufferView" : 18,
            "componentType" : 5126,
            "count" : 114,
            "type" : "VEC3"
        },
        {
            "bufferView" : 19,
            "componentType" : 5123,
            "count" : 342,
            "type" : "SCALAR"
        },
        {
            "bufferView" : 20,
            "componentType" : 5126,
            "count" : 9890,
            "max" : [
                6.4934611320495605,
                1.956249475479126,
                14.612210273742676
            ],
            "min" : [
                -28.412212371826172,
                -11.168749809265137,
                -0.9997097849845886
            ],
            "type" : "VEC3"
        },
        {
            "bufferView" : 21,
            "componentType" : 5126,
            "count" : 9890,
            "type" : "VEC3"
        },
        {
            "bufferView" : 22,
            "componentType" : 5126,
            "count" : 9890,
            "type" : "VEC2"
        },
        {
            "bufferView" : 23,
            "componentType" : 5123,
            "count" : 55680,
            "type" : "SCALAR"
        },
        {
            "bufferView" : 24,
            "componentType" : 5126,
            "count" : 190,
            "max" : [
                2.1502373218536377,
                4.311551570892334,
                0.18581083416938782
            ],
            "min" : [
                -0.09863666445016861,
                -0.32500022649765015,
                -2.8413946628570557
            ],
            "type" : "VEC3"
        },
        {
            "bufferView" : 25,
            "componentType" : 5126,
            "count" : 190,
            "type" : "VEC3"
        },
        {
            "bufferView" : 26,
            "componentType" : 5123,
            "count" : 570,
            "type" : "SCALAR"
        }
    ],
    "bufferViews" : [
        {
            "buffer" : 0,
            "byteLength" : 23736,
            "byteOffset" : 0
        },
        {
            "buffer" : 0,
            "byteLength" : 23736,
            "byteOffset" : 23736
        },
        {
            "buffer" : 0,
            "byteLength" : 15824,
            "byteOffset" : 47472
        },
        {
            "buffer" : 0,
            "byteLength" : 22272,
            "byteOffset" : 63296
        },
        {
            "buffer" : 0,
            "byteLength" : 1368,
            "byteOffset" : 85568
        },
        {
            "buffer" : 0,
            "byteLength" : 1368,
            "byteOffset" : 86936
        },
        {
            "buffer" : 0,
            "byteLength" : 684,
            "byteOffset" : 88304
        },
        {
            "buffer" : 0,
            "byteLength" : 47472,
            "byteOffset" : 88988
        },
        {
            "buffer" : 0,
            "byteLength" : 47472,
            "byteOffset" : 136460
        },
        {
            "buffer" : 0,
            "byteLength" : 31648,
            "byteOffset" : 183932
        },
        {
            "buffer" : 0,
            "byteLength" : 44544,
            "byteOffset" : 215580
        },
        {
            "buffer" : 0,
            "byteLength" : 2736,
            "byteOffset" : 260124
        },
        {
            "buffer" : 0,
            "byteLength" : 2736,
            "byteOffset" : 262860
        },
        {
            "buffer" : 0,
            "byteLength" : 1368,
            "byteOffset" : 265596
        },
        {
            "buffer" : 0,
            "byteLength" : 47472,
            "byteOffset" : 266964
        },
        {
            "buffer" : 0,
            "byteLength" : 47472,
            "byteOffset" : 314436
        },
        {
            "buffer" : 0,
            "byteLength" : 31648,
            "byteOffset" : 361908
        },
        {
            "buffer" : 0,
            "byteLength" : 1368,
            "byteOffset" : 393556
        },
        {
            "buffer" : 0,
            "byteLength" : 1368,
            "byteOffset" : 394924
        },
        {
            "buffer" : 0,
            "byteLength" : 684,
            "byteOffset" : 396292
        },
        {
            "buffer" : 0,
            "byteLength" : 118680,
            "byteOffset" : 396976
        },
        {
            "buffer" : 0,
            "byteLength" : 118680,
            "byteOffset" : 515656
        },
        {
            "buffer" : 0,
            "byteLength" : 79120,
            "byteOffset" : 634336
        },
        {
            "buffer" : 0,
            "byteLength" : 111360,
            "byteOffset" : 713456
        },
        {
            "buffer" : 0,
            "byteLength" : 2280,
            "byteOffset" : 824816
        },
        {
            "buffer" : 0,
            "byteLength" : 2280,
            "byteOffset" : 827096
        },
        {
            "buffer" : 0,
            "byteLength" : 1140,
            "byteOffset" : 829376
        }
    ],
    "buffers" : [
        {
            "byteLength" : 830516,
            "uri" : "data:application/octet-stream;base64,"
        }
    ]
}
