{
    "asset" : {
        "generator" : "Khronos glTF Blender I/O v1.3.48",
        "version" : "2.0"
    },
    "scene" : 0,
    "scenes" : [
        {
            "name" : "Scene",
            "nodes" : [
                0,
                1
            ]
        }
    ],
    "nodes" : [
        {
            "mesh" : 0,
            "name" : "Hydrogen_sticks_cylinder.044",
            "rotation" : [
                -0.6731961965560913,
                -0.34542688727378845,
                0.10182958096265793,
                0.6458466649055481
            ],
            "translation" : [
                -0.3583635985851288,
                -0.07834159582853317,
                1.0104055404663086
            ]
        },
        {
            "mesh" : 1,
            "name" : "Carbon_ball.005",
            "scale" : [
                0.38499999046325684,
                0.38499999046325684,
                0.38499999046325684
            ],
            "translation" : [
                -0.35680004954338074,
                -0.07799998670816422,
                1.0059998035430908
            ]
        }
    ],
    "materials" : [
        {
            "doubleSided" : true,
            "name" : "Hydrogen.001",
            "pbrMetallicRoughness" : {}
        },
        {
            "doubleSided" : true,
            "name" : "Carbon.001",
            "pbrMetallicRoughness" : {}
        }
    ],
    "meshes" : [
        {
            "name" : "Hydrogen_sticks_cylinder.001",
            "primitives" : [
                {
                    "attributes" : {
                        "POSITION" : 0,
                        "NORMAL" : 1
                    },
                    "indices" : 2,
                    "material" : 0
                },
                {
                    "attributes" : {
                        "POSITION" : 3,
                        "NORMAL" : 4
                    },
                    "indices" : 5,
                    "material" : 1
                }
            ]
        },
        {
            "name" : "SurfSphere.002",
            "primitives" : [
                {
                    "attributes" : {
                        "POSITION" : 6,
                        "NORMAL" : 7,
                        "TEXCOORD_0" : 8
                    },
                    "indices" : 9,
                    "material" : 1
                }
            ]
        }
    ],
    "accessors" : [
        {
            "bufferView" : 0,
            "componentType" : 5126,
            "count" : 152,
            "max" : [
                0.8816044330596924,
                1.5358941555023193,
                1.0621615648269653
            ],
            "min" : [
                -1.0115946531295776,
                -0.02500000037252903,
                -0.7225888967514038
            ],
            "type" : "VEC3"
        },
        {
            "bufferView" : 1,
            "componentType" : 5126,
            "count" : 152,
            "type" : "VEC3"
        },
        {
            "bufferView" : 2,
            "componentType" : 5123,
            "count" : 456,
            "type" : "SCALAR"
        },
        {
            "bufferView" : 3,
            "componentType" : 5126,
            "count" : 152,
            "max" : [
                0.4742622971534729,
                1.352442979812622,
                0.548952579498291
            ],
            "min" : [
                -0.5299102067947388,
                0.5250000953674316,
                -0.4017803370952606
            ],
            "type" : "VEC3"
        },
        {
            "bufferView" : 4,
            "componentType" : 5126,
            "count" : 152,
            "type" : "VEC3"
        },
        {
            "bufferView" : 5,
            "componentType" : 5123,
            "count" : 456,
            "type" : "SCALAR"
        },
        {
            "bufferView" : 6,
            "componentType" : 5126,
            "count" : 3841,
            "max" : [
                4.706202983856201,
                3.5662336349487305,
                0.9997097253799438
            ],
            "min" : [
                -0.9997098445892334,
                -2.9584412574768066,
                -5.0932159423828125
            ],
            "type" : "VEC3"
        },
        {
            "bufferView" : 7,
            "componentType" : 5126,
            "count" : 3841,
            "type" : "VEC3"
        },
        {
            "bufferView" : 8,
            "componentType" : 5126,
            "count" : 3841,
            "type" : "VEC2"
        },
        {
            "bufferView" : 9,
            "componentType" : 5123,
            "count" : 20874,
            "type" : "SCALAR"
        }
    ],
    "bufferViews" : [
        {
            "buffer" : 0,
            "byteLength" : 1824,
            "byteOffset" : 0
        },
        {
            "buffer" : 0,
            "byteLength" : 1824,
            "byteOffset" : 1824
        },
        {
            "buffer" : 0,
            "byteLength" : 912,
            "byteOffset" : 3648
        },
        {
            "buffer" : 0,
            "byteLength" : 1824,
            "byteOffset" : 4560
        },
        {
            "buffer" : 0,
            "byteLength" : 1824,
            "byteOffset" : 6384
        },
        {
            "buffer" : 0,
            "byteLength" : 912,
            "byteOffset" : 8208
        },
        {
            "buffer" : 0,
            "byteLength" : 46092,
            "byteOffset" : 9120
        },
        {
            "buffer" : 0,
            "byteLength" : 46092,
            "byteOffset" : 55212
        },
        {
            "buffer" : 0,
            "byteLength" : 30728,
            "byteOffset" : 101304
        },
        {
            "buffer" : 0,
            "byteLength" : 41748,
            "byteOffset" : 132032
        }
    ],
    "buffers" : [
        {
            "byteLength" : 173780,
            "uri" : "data:application/octet-stream;base64,"
        }
    ]
}
