{
    "asset" : {
        "generator" : "Khronos glTF Blender I/O v1.3.48",
        "version" : "2.0"
    },
    "scene" : 0,
    "scenes" : [
        {
            "name" : "Scene",
            "nodes" : [
                0,
                1,
                2
            ]
        }
    ],
    "nodes" : [
        {
            "mesh" : 0,
            "name" : "Verbindungen",
            "rotation" : [
                -0.6731961965560913,
                -0.34542688727378845,
                0.10182958096265793,
                0.6458466649055481
            ],
            "translation" : [
                9.244680404663086e-05,
                -5.073845386505127e-05,
                -3.0517578125e-05
            ]
        },
        {
            "mesh" : 1,
            "name" : "Atom_Wasserstoff",
            "scale" : [
                0.38499999046325684,
                0.38499999046325684,
                0.38499999046325684
            ],
            "translation" : [
                -0.00043326616287231445,
                0.006758995354175568,
                0
            ]
        },
        {
            "mesh" : 2,
            "name" : "Atom_Carbon",
            "scale" : [
                0.38499999046325684,
                0.38499999046325684,
                0.38499999046325684
            ],
            "translation" : [
                0.00020009279251098633,
                0.00661836564540863,
                0
            ]
        }
    ],
    "materials" : [
        {
            "doubleSided" : true,
            "name" : "Hydrogen",
            "pbrMetallicRoughness" : {}
        },
        {
            "doubleSided" : true,
            "name" : "Carbon",
            "pbrMetallicRoughness" : {}
        }
    ],
    "meshes" : [
        {
            "name" : "Verbindungen",
            "primitives" : [
                {
                    "attributes" : {
                        "POSITION" : 0,
                        "NORMAL" : 1
                    },
                    "indices" : 2,
                    "material" : 0
                },
                {
                    "attributes" : {
                        "POSITION" : 3,
                        "NORMAL" : 4
                    },
                    "indices" : 5,
                    "material" : 1
                }
            ]
        },
        {
            "name" : "Atom_Wasserstoff",
            "primitives" : [
                {
                    "attributes" : {
                        "POSITION" : 6,
                        "NORMAL" : 7,
                        "TEXCOORD_0" : 8
                    },
                    "indices" : 9,
                    "material" : 0
                }
            ]
        },
        {
            "name" : "Atom_Carbon",
            "primitives" : [
                {
                    "attributes" : {
                        "POSITION" : 10,
                        "NORMAL" : 11,
                        "TEXCOORD_0" : 12
                    },
                    "indices" : 13,
                    "material" : 1
                }
            ]
        }
    ],
    "accessors" : [
        {
            "bufferView" : 0,
            "componentType" : 5126,
            "count" : 152,
            "max" : [
                0.8817233443260193,
                0.46090495586395264,
                1.0621343851089478
            ],
            "min" : [
                -1.0114758014678955,
                -1.0999891757965088,
                -0.7226160764694214
            ],
            "type" : "VEC3"
        },
        {
            "bufferView" : 1,
            "componentType" : 5126,
            "count" : 152,
            "type" : "VEC3"
        },
        {
            "bufferView" : 2,
            "componentType" : 5123,
            "count" : 456,
            "type" : "SCALAR"
        },
        {
            "bufferView" : 3,
            "componentType" : 5126,
            "count" : 152,
            "max" : [
                0.4743811786174774,
                0.27745378017425537,
                0.5489253997802734
            ],
            "min" : [
                -0.5297912955284119,
                -0.5499891042709351,
                -0.4018075168132782
            ],
            "type" : "VEC3"
        },
        {
            "bufferView" : 4,
            "componentType" : 5126,
            "count" : 152,
            "type" : "VEC3"
        },
        {
            "bufferView" : 5,
            "componentType" : 5123,
            "count" : 456,
            "type" : "SCALAR"
        },
        {
            "bufferView" : 6,
            "componentType" : 5126,
            "count" : 3068,
            "max" : [
                3.7805747985839844,
                3.3460803031921387,
                3.6126976013183594
            ],
            "min" : [
                -1.9253379106521606,
                -3.1785945892333984,
                -2.4802281856536865
            ],
            "type" : "VEC3"
        },
        {
            "bufferView" : 7,
            "componentType" : 5126,
            "count" : 3068,
            "type" : "VEC3"
        },
        {
            "bufferView" : 8,
            "componentType" : 5126,
            "count" : 3068,
            "type" : "VEC2"
        },
        {
            "bufferView" : 9,
            "componentType" : 5123,
            "count" : 16698,
            "type" : "SCALAR"
        },
        {
            "bufferView" : 10,
            "componentType" : 5126,
            "count" : 773,
            "max" : [
                0.9997094869613647,
                0.98280930519104,
                0.9997122287750244
            ],
            "min" : [
                -0.9997100830078125,
                -1.0171904563903809,
                -0.9997067451477051
            ],
            "type" : "VEC3"
        },
        {
            "bufferView" : 11,
            "componentType" : 5126,
            "count" : 773,
            "type" : "VEC3"
        },
        {
            "bufferView" : 12,
            "componentType" : 5126,
            "count" : 773,
            "type" : "VEC2"
        },
        {
            "bufferView" : 13,
            "componentType" : 5123,
            "count" : 4176,
            "type" : "SCALAR"
        }
    ],
    "bufferViews" : [
        {
            "buffer" : 0,
            "byteLength" : 1824,
            "byteOffset" : 0
        },
        {
            "buffer" : 0,
            "byteLength" : 1824,
            "byteOffset" : 1824
        },
        {
            "buffer" : 0,
            "byteLength" : 912,
            "byteOffset" : 3648
        },
        {
            "buffer" : 0,
            "byteLength" : 1824,
            "byteOffset" : 4560
        },
        {
            "buffer" : 0,
            "byteLength" : 1824,
            "byteOffset" : 6384
        },
        {
            "buffer" : 0,
            "byteLength" : 912,
            "byteOffset" : 8208
        },
        {
            "buffer" : 0,
            "byteLength" : 36816,
            "byteOffset" : 9120
        },
        {
            "buffer" : 0,
            "byteLength" : 36816,
            "byteOffset" : 45936
        },
        {
            "buffer" : 0,
            "byteLength" : 24544,
            "byteOffset" : 82752
        },
        {
            "buffer" : 0,
            "byteLength" : 33396,
            "byteOffset" : 107296
        },
        {
            "buffer" : 0,
            "byteLength" : 9276,
            "byteOffset" : 140692
        },
        {
            "buffer" : 0,
            "byteLength" : 9276,
            "byteOffset" : 149968
        },
        {
            "buffer" : 0,
            "byteLength" : 6184,
            "byteOffset" : 159244
        },
        {
            "buffer" : 0,
            "byteLength" : 8352,
            "byteOffset" : 165428
        }
    ],
    "buffers" : [
        {
            "byteLength" : 173780,
            "uri" : "data:application/octet-stream;base64,"
        }
    ]
}
