{
    "asset" : {
        "generator" : "Khronos glTF Blender I/O v1.3.48",
        "version" : "2.0"
    },
    "scene" : 0,
    "scenes" : [
        {
            "name" : "Scene",
            "nodes" : [
                0,
                1,
                2,
                3
            ]
        }
    ],
    "nodes" : [
        {
            "mesh" : 0,
            "name" : "Carbon_Atoms",
            "scale" : [
                0.38499999046325684,
                0.38499999046325684,
                0.38499999046325684
            ],
            "translation" : [
                0,
                0,
                -0.6419999599456787
            ]
        },
        {
            "mesh" : 1,
            "name" : "Carbon_sticks",
            "rotation" : [
                -0.540646493434906,
                -0.7045535445213318,
                -0.45574256777763367,
                0.06003642827272415
            ],
            "translation" : [
                1.228586196899414,
                0,
                0.22656814754009247
            ]
        },
        {
            "mesh" : 2,
            "name" : "Hydrogen_Atoms",
            "scale" : [
                0.1599999964237213,
                0.1599999964237213,
                0.1599999964237213
            ],
            "translation" : [
                1.2489999532699585,
                0.8899999856948853,
                0.8700000047683716
            ]
        },
        {
            "mesh" : 3,
            "name" : "Hydrogen_sticks",
            "rotation" : [
                -0.2938185930252075,
                0.2880406975746155,
                -0.9066364169120789,
                0.09334693849086761
            ],
            "translation" : [
                1.2489999532699585,
                0.4695664048194885,
                0.5728620886802673
            ]
        }
    ],
    "materials" : [
        {
            "doubleSided" : true,
            "name" : "Carbon",
            "pbrMetallicRoughness" : {}
        },
        {
            "doubleSided" : true,
            "name" : "Hydrogen",
            "pbrMetallicRoughness" : {}
        }
    ],
    "meshes" : [
        {
            "name" : "Carbon_Atoms",
            "primitives" : [
                {
                    "attributes" : {
                        "POSITION" : 0,
                        "NORMAL" : 1,
                        "TEXCOORD_0" : 2
                    },
                    "indices" : 3,
                    "material" : 0
                }
            ]
        },
        {
            "name" : "Carbon_sticks",
            "primitives" : [
                {
                    "attributes" : {
                        "POSITION" : 4,
                        "NORMAL" : 5
                    },
                    "indices" : 6,
                    "material" : 0
                }
            ]
        },
        {
            "name" : "Hydrogen_Atoms",
            "primitives" : [
                {
                    "attributes" : {
                        "POSITION" : 7,
                        "NORMAL" : 8,
                        "TEXCOORD_0" : 9
                    },
                    "indices" : 10,
                    "material" : 1
                }
            ]
        },
        {
            "name" : "Hydrogen_sticks",
            "primitives" : [
                {
                    "attributes" : {
                        "POSITION" : 11,
                        "NORMAL" : 12
                    },
                    "indices" : 13,
                    "material" : 1
                }
            ]
        }
    ],
    "accessors" : [
        {
            "bufferView" : 0,
            "componentType" : 5126,
            "count" : 5934,
            "max" : [
                4.243865966796875,
                0.9999999403953552,
                3.2932162284851074
            ],
            "min" : [
                -4.243865489959717,
                -1,
                -0.9997097849845886
            ],
            "type" : "VEC3"
        },
        {
            "bufferView" : 1,
            "componentType" : 5126,
            "count" : 5934,
            "type" : "VEC3"
        },
        {
            "bufferView" : 2,
            "componentType" : 5126,
            "count" : 5934,
            "type" : "VEC2"
        },
        {
            "bufferView" : 3,
            "componentType" : 5123,
            "count" : 33408,
            "type" : "SCALAR"
        },
        {
            "bufferView" : 4,
            "componentType" : 5126,
            "count" : 380,
            "max" : [
                1.5618293285369873,
                0.3026978373527527,
                0.5421443581581116
            ],
            "min" : [
                -0.5418180823326111,
                -2.5647597312927246,
                -1.5618126392364502
            ],
            "type" : "VEC3"
        },
        {
            "bufferView" : 5,
            "componentType" : 5126,
            "count" : 380,
            "type" : "VEC3"
        },
        {
            "bufferView" : 6,
            "componentType" : 5123,
            "count" : 1140,
            "type" : "SCALAR"
        },
        {
            "bufferView" : 7,
            "componentType" : 5126,
            "count" : 15824,
            "max" : [
                6.562209606170654,
                1.0000005960464478,
                0.9997097849845886
            ],
            "min" : [
                -22.174711227416992,
                -12.125000953674316,
                -14.387210845947266
            ],
            "type" : "VEC3"
        },
        {
            "bufferView" : 8,
            "componentType" : 5126,
            "count" : 15824,
            "type" : "VEC3"
        },
        {
            "bufferView" : 9,
            "componentType" : 5126,
            "count" : 15824,
            "type" : "VEC2"
        },
        {
            "bufferView" : 10,
            "componentType" : 5123,
            "count" : 89088,
            "type" : "SCALAR"
        },
        {
            "bufferView" : 11,
            "componentType" : 5126,
            "count" : 494,
            "max" : [
                2.714630603790283,
                2.1846985816955566,
                0.9043850898742676
            ],
            "min" : [
                -1.0663444995880127,
                -0.5250003933906555,
                -2.462876081466675
            ],
            "type" : "VEC3"
        },
        {
            "bufferView" : 12,
            "componentType" : 5126,
            "count" : 494,
            "type" : "VEC3"
        },
        {
            "bufferView" : 13,
            "componentType" : 5123,
            "count" : 2052,
            "type" : "SCALAR"
        }
    ],
    "bufferViews" : [
        {
            "buffer" : 0,
            "byteLength" : 71208,
            "byteOffset" : 0
        },
        {
            "buffer" : 0,
            "byteLength" : 71208,
            "byteOffset" : 71208
        },
        {
            "buffer" : 0,
            "byteLength" : 47472,
            "byteOffset" : 142416
        },
        {
            "buffer" : 0,
            "byteLength" : 66816,
            "byteOffset" : 189888
        },
        {
            "buffer" : 0,
            "byteLength" : 4560,
            "byteOffset" : 256704
        },
        {
            "buffer" : 0,
            "byteLength" : 4560,
            "byteOffset" : 261264
        },
        {
            "buffer" : 0,
            "byteLength" : 2280,
            "byteOffset" : 265824
        },
        {
            "buffer" : 0,
            "byteLength" : 189888,
            "byteOffset" : 268104
        },
        {
            "buffer" : 0,
            "byteLength" : 189888,
            "byteOffset" : 457992
        },
        {
            "buffer" : 0,
            "byteLength" : 126592,
            "byteOffset" : 647880
        },
        {
            "buffer" : 0,
            "byteLength" : 178176,
            "byteOffset" : 774472
        },
        {
            "buffer" : 0,
            "byteLength" : 5928,
            "byteOffset" : 952648
        },
        {
            "buffer" : 0,
            "byteLength" : 5928,
            "byteOffset" : 958576
        },
        {
            "buffer" : 0,
            "byteLength" : 4104,
            "byteOffset" : 964504
        }
    ],
    "buffers" : [
        {
            "byteLength" : 968608,
            "uri" : "data:application/octet-stream;base64,"
        }
    ]
}
