{
    "asset" : {
        "generator" : "Khronos glTF Blender I/O v1.3.48",
        "version" : "2.0"
    },
    "scene" : 0,
    "scenes" : [
        {
            "name" : "Scene",
            "nodes" : [
                0,
                1,
                2,
                3
            ]
        }
    ],
    "nodes" : [
        {
            "mesh" : 0,
            "name" : "Carbon_Atoms",
            "scale" : [
                0.38499999046325684,
                0.38499999046325684,
                0.38499999046325684
            ],
            "translation" : [
                0,
                0,
                -0.6419999599456787
            ]
        },
        {
            "mesh" : 1,
            "name" : "Carbon_sticks",
            "rotation" : [
                -0.540646493434906,
                -0.7045535445213318,
                -0.45574256777763367,
                0.06003642827272415
            ],
            "translation" : [
                1.228586196899414,
                0,
                0.22656814754009247
            ]
        },
        {
            "mesh" : 2,
            "name" : "Hydrogen_Atoms",
            "scale" : [
                0.1599999964237213,
                0.1599999964237213,
                0.1599999964237213
            ],
            "translation" : [
                1.2489999532699585,
                0.8899999856948853,
                0.8700000047683716
            ]
        },
        {
            "mesh" : 3,
            "name" : "Hydrogen_sticks",
            "rotation" : [
                -0.2938185930252075,
                0.2880406975746155,
                -0.9066364169120789,
                0.09334693849086761
            ],
            "translation" : [
                1.2489999532699585,
                0.4695664048194885,
                0.5728620886802673
            ]
        }
    ],
    "materials" : [
        {
            "doubleSided" : true,
            "name" : "Carbon",
            "pbrMetallicRoughness" : {}
        },
        {
            "doubleSided" : true,
            "emissiveFactor" : [
                0,
                0,
                0
            ],
            "name" : "Hydrogen",
            "pbrMetallicRoughness" : {
                "baseColorFactor" : [
                    0.28744083642959595,
                    0.29613831639289856,
                    0.30054378509521484,
                    1
                ],
                "metallicFactor" : 0,
                "roughnessFactor" : 0.5
            }
        }
    ],
    "meshes" : [
        {
            "name" : "Carbon_Atoms",
            "primitives" : [
                {
                    "attributes" : {
                        "POSITION" : 0,
                        "NORMAL" : 1,
                        "TEXCOORD_0" : 2
                    },
                    "indices" : 3,
                    "material" : 0
                }
            ]
        },
        {
            "name" : "Carbon_sticks",
            "primitives" : [
                {
                    "attributes" : {
                        "POSITION" : 4,
                        "NORMAL" : 5
                    },
                    "indices" : 6,
                    "material" : 0
                }
            ]
        },
        {
            "name" : "Hydrogen_Atoms",
            "primitives" : [
                {
                    "attributes" : {
                        "POSITION" : 7,
                        "NORMAL" : 8,
                        "TEXCOORD_0" : 9
                    },
                    "indices" : 10,
                    "material" : 1
                }
            ]
        },
        {
            "name" : "Hydrogen_sticks",
            "primitives" : [
                {
                    "attributes" : {
                        "POSITION" : 11,
                        "NORMAL" : 12
                    },
                    "indices" : 13,
                    "material" : 1
                }
            ]
        }
    ],
    "accessors" : [
        {
            "bufferView" : 0,
            "componentType" : 5126,
            "count" : 3062,
            "max" : [
                4.2438645362854,
                0.9999999403953552,
                3.2932159900665283
            ],
            "min" : [
                -4.2438645362854,
                -0.9999999403953552,
                -0.9932910203933716
            ],
            "type" : "VEC3"
        },
        {
            "bufferView" : 1,
            "componentType" : 5126,
            "count" : 3062,
            "type" : "VEC3"
        },
        {
            "bufferView" : 2,
            "componentType" : 5126,
            "count" : 3062,
            "type" : "VEC2"
        },
        {
            "bufferView" : 3,
            "componentType" : 5123,
            "count" : 16704,
            "type" : "SCALAR"
        },
        {
            "bufferView" : 4,
            "componentType" : 5126,
            "count" : 380,
            "max" : [
                1.5618293285369873,
                0.3026978373527527,
                0.5421443581581116
            ],
            "min" : [
                -0.5418180823326111,
                -2.5647597312927246,
                -1.5618126392364502
            ],
            "type" : "VEC3"
        },
        {
            "bufferView" : 5,
            "componentType" : 5126,
            "count" : 380,
            "type" : "VEC3"
        },
        {
            "bufferView" : 6,
            "componentType" : 5123,
            "count" : 1140,
            "type" : "SCALAR"
        },
        {
            "bufferView" : 7,
            "componentType" : 5126,
            "count" : 7706,
            "max" : [
                6.562209606170654,
                1.0000005960464478,
                0.9997097253799438
            ],
            "min" : [
                -22.174707412719727,
                -12.125000953674316,
                -14.387208938598633
            ],
            "type" : "VEC3"
        },
        {
            "bufferView" : 8,
            "componentType" : 5126,
            "count" : 7706,
            "type" : "VEC3"
        },
        {
            "bufferView" : 9,
            "componentType" : 5126,
            "count" : 7706,
            "type" : "VEC2"
        },
        {
            "bufferView" : 10,
            "componentType" : 5123,
            "count" : 41856,
            "type" : "SCALAR"
        },
        {
            "bufferView" : 11,
            "componentType" : 5126,
            "count" : 494,
            "max" : [
                2.714630603790283,
                2.1846985816955566,
                0.9043850898742676
            ],
            "min" : [
                -1.0663444995880127,
                -0.5250003933906555,
                -2.462876081466675
            ],
            "type" : "VEC3"
        },
        {
            "bufferView" : 12,
            "componentType" : 5126,
            "count" : 494,
            "type" : "VEC3"
        },
        {
            "bufferView" : 13,
            "componentType" : 5123,
            "count" : 2052,
            "type" : "SCALAR"
        }
    ],
    "bufferViews" : [
        {
            "buffer" : 0,
            "byteLength" : 36744,
            "byteOffset" : 0
        },
        {
            "buffer" : 0,
            "byteLength" : 36744,
            "byteOffset" : 36744
        },
        {
            "buffer" : 0,
            "byteLength" : 24496,
            "byteOffset" : 73488
        },
        {
            "buffer" : 0,
            "byteLength" : 33408,
            "byteOffset" : 97984
        },
        {
            "buffer" : 0,
            "byteLength" : 4560,
            "byteOffset" : 131392
        },
        {
            "buffer" : 0,
            "byteLength" : 4560,
            "byteOffset" : 135952
        },
        {
            "buffer" : 0,
            "byteLength" : 2280,
            "byteOffset" : 140512
        },
        {
            "buffer" : 0,
            "byteLength" : 92472,
            "byteOffset" : 142792
        },
        {
            "buffer" : 0,
            "byteLength" : 92472,
            "byteOffset" : 235264
        },
        {
            "buffer" : 0,
            "byteLength" : 61648,
            "byteOffset" : 327736
        },
        {
            "buffer" : 0,
            "byteLength" : 83712,
            "byteOffset" : 389384
        },
        {
            "buffer" : 0,
            "byteLength" : 5928,
            "byteOffset" : 473096
        },
        {
            "buffer" : 0,
            "byteLength" : 5928,
            "byteOffset" : 479024
        },
        {
            "buffer" : 0,
            "byteLength" : 4104,
            "byteOffset" : 484952
        }
    ],
    "buffers" : [
        {
            "byteLength" : 489056,
            "uri" : "data:application/octet-stream;base64,"
        }
    ]
}
