{
    "asset" : {
        "generator" : "Khronos glTF Blender I/O v1.3.48",
        "version" : "2.0"
    },
    "scene" : 0,
    "scenes" : [
        {
            "name" : "Scene",
            "nodes" : [
                0,
                1,
                2,
                3,
                4,
                5
            ]
        }
    ],
    "nodes" : [
        {
            "mesh" : 0,
            "name" : "Sulfur_Atom",
            "scale" : [
                0.5099999904632568,
                0.5099999904632568,
                0.5099999904632568
            ],
            "translation" : [
                0,
                -0.186571404337883,
                0
            ]
        },
        {
            "mesh" : 1,
            "name" : "Sulfur_sticks",
            "rotation" : [
                0.824625551700592,
                0.41658851504325867,
                -0.34157121181488037,
                0.17255672812461853
            ],
            "translation" : [
                -0.020123504102230072,
                -0.17173752188682556,
                0
            ]
        },
        {
            "mesh" : 2,
            "name" : "Oxygen_Atoms",
            "scale" : [
                0.36500000953674316,
                0.36500000953674316,
                0.36500000953674316
            ],
            "translation" : [
                -1.225000023841858,
                0.7164285182952881,
                0
            ]
        },
        {
            "mesh" : 3,
            "name" : "Oxygen_sticks",
            "rotation" : [
                -0.4650009870529175,
                0.7983279228210449,
                0.1926097720861435,
                0.3306782841682434
            ],
            "translation" : [
                1.638169288635254,
                0.4820864498615265,
                0
            ]
        },
        {
            "mesh" : 4,
            "name" : "Hydrogen_Atoms",
            "scale" : [
                0.1599999964237213,
                0.1599999964237213,
                0.1599999964237213
            ],
            "translation" : [
                -2.065999984741211,
                0.2394285947084427,
                0
            ]
        },
        {
            "mesh" : 5,
            "name" : "Hydrogen_sticks",
            "rotation" : [
                -0.1926097869873047,
                -0.3306783139705658,
                -0.4650009572505951,
                0.7983280420303345
            ],
            "translation" : [
                -1.681660771369934,
                0.45741885900497437,
                0
            ]
        }
    ],
    "materials" : [
        {
            "doubleSided" : true,
            "name" : "Sulfur",
            "pbrMetallicRoughness" : {}
        },
        {
            "doubleSided" : true,
            "name" : "Oxygen",
            "pbrMetallicRoughness" : {}
        },
        {
            "doubleSided" : true,
            "name" : "Hydrogen",
            "pbrMetallicRoughness" : {}
        }
    ],
    "meshes" : [
        {
            "name" : "Sulfur_Atom",
            "primitives" : [
                {
                    "attributes" : {
                        "POSITION" : 0,
                        "NORMAL" : 1,
                        "TEXCOORD_0" : 2
                    },
                    "indices" : 3,
                    "material" : 0
                }
            ]
        },
        {
            "name" : "Sulfur_sticks",
            "primitives" : [
                {
                    "attributes" : {
                        "POSITION" : 4,
                        "NORMAL" : 5
                    },
                    "indices" : 6,
                    "material" : 0
                }
            ]
        },
        {
            "name" : "Oxygen_Atoms",
            "primitives" : [
                {
                    "attributes" : {
                        "POSITION" : 7,
                        "NORMAL" : 8,
                        "TEXCOORD_0" : 9
                    },
                    "indices" : 10,
                    "material" : 1
                }
            ]
        },
        {
            "name" : "Oxygen_sticks_cylinder",
            "primitives" : [
                {
                    "attributes" : {
                        "POSITION" : 11,
                        "NORMAL" : 12
                    },
                    "indices" : 13,
                    "material" : 1
                }
            ]
        },
        {
            "name" : "Hydrogen_Atoms",
            "primitives" : [
                {
                    "attributes" : {
                        "POSITION" : 14,
                        "NORMAL" : 15,
                        "TEXCOORD_0" : 16
                    },
                    "indices" : 17,
                    "material" : 2
                }
            ]
        },
        {
            "name" : "Hydrogen_sticks",
            "primitives" : [
                {
                    "attributes" : {
                        "POSITION" : 18,
                        "NORMAL" : 19
                    },
                    "indices" : 20,
                    "material" : 2
                }
            ]
        }
    ],
    "accessors" : [
        {
            "bufferView" : 0,
            "componentType" : 5126,
            "count" : 1980,
            "max" : [
                0.9997097849845886,
                1,
                0.9997097849845886
            ],
            "min" : [
                -0.9997099041938782,
                -1,
                -0.9997097849845886
            ],
            "type" : "VEC3"
        },
        {
            "bufferView" : 1,
            "componentType" : 5126,
            "count" : 1980,
            "type" : "VEC3"
        },
        {
            "bufferView" : 2,
            "componentType" : 5126,
            "count" : 1980,
            "type" : "VEC2"
        },
        {
            "bufferView" : 3,
            "componentType" : 5123,
            "count" : 11328,
            "type" : "SCALAR"
        },
        {
            "bufferView" : 4,
            "componentType" : 5126,
            "count" : 304,
            "max" : [
                0.6138389706611633,
                0.35712718963623047,
                0.7144503593444824
            ],
            "min" : [
                -0.7140029668807983,
                -0.7750001549720764,
                -0.6131166219711304
            ],
            "type" : "VEC3"
        },
        {
            "bufferView" : 5,
            "componentType" : 5126,
            "count" : 304,
            "type" : "VEC3"
        },
        {
            "bufferView" : 6,
            "componentType" : 5123,
            "count" : 456,
            "type" : "SCALAR"
        },
        {
            "bufferView" : 7,
            "componentType" : 5126,
            "count" : 7920,
            "max" : [
                7.712038516998291,
                1,
                4.424367427825928
            ],
            "min" : [
                -0.9997099041938782,
                -5.3260273933410645,
                -4.424367427825928
            ],
            "type" : "VEC3"
        },
        {
            "bufferView" : 8,
            "componentType" : 5126,
            "count" : 7920,
            "type" : "VEC3"
        },
        {
            "bufferView" : 9,
            "componentType" : 5126,
            "count" : 7920,
            "type" : "VEC2"
        },
        {
            "bufferView" : 10,
            "componentType" : 5123,
            "count" : 45312,
            "type" : "SCALAR"
        },
        {
            "bufferView" : 11,
            "componentType" : 5126,
            "count" : 456,
            "max" : [
                2.3948683738708496,
                2.948441505432129,
                0.12681059539318085
            ],
            "min" : [
                -0.12664350867271423,
                -0.02500000037252903,
                -2.395029306411743
            ],
            "type" : "VEC3"
        },
        {
            "bufferView" : 12,
            "componentType" : 5126,
            "count" : 456,
            "type" : "VEC3"
        },
        {
            "bufferView" : 13,
            "componentType" : 5123,
            "count" : 684,
            "type" : "SCALAR"
        },
        {
            "bufferView" : 14,
            "componentType" : 5126,
            "count" : 3960,
            "max" : [
                26.824710845947266,
                1,
                0.9997097849845886
            ],
            "min" : [
                -0.9997099041938782,
                -1,
                -0.9997097849845886
            ],
            "type" : "VEC3"
        },
        {
            "bufferView" : 15,
            "componentType" : 5126,
            "count" : 3960,
            "type" : "VEC3"
        },
        {
            "bufferView" : 16,
            "componentType" : 5126,
            "count" : 3960,
            "type" : "VEC2"
        },
        {
            "bufferView" : 17,
            "componentType" : 5123,
            "count" : 22656,
            "type" : "SCALAR"
        },
        {
            "bufferView" : 18,
            "componentType" : 5126,
            "count" : 152,
            "max" : [
                1.5406365394592285,
                3.2550454139709473,
                0.09965845197439194
            ],
            "min" : [
                -0.09863613545894623,
                -0.4750000536441803,
                -1.541035532951355
            ],
            "type" : "VEC3"
        },
        {
            "bufferView" : 19,
            "componentType" : 5126,
            "count" : 152,
            "type" : "VEC3"
        },
        {
            "bufferView" : 20,
            "componentType" : 5123,
            "count" : 228,
            "type" : "SCALAR"
        }
    ],
    "bufferViews" : [
        {
            "buffer" : 0,
            "byteLength" : 23760,
            "byteOffset" : 0
        },
        {
            "buffer" : 0,
            "byteLength" : 23760,
            "byteOffset" : 23760
        },
        {
            "buffer" : 0,
            "byteLength" : 15840,
            "byteOffset" : 47520
        },
        {
            "buffer" : 0,
            "byteLength" : 22656,
            "byteOffset" : 63360
        },
        {
            "buffer" : 0,
            "byteLength" : 3648,
            "byteOffset" : 86016
        },
        {
            "buffer" : 0,
            "byteLength" : 3648,
            "byteOffset" : 89664
        },
        {
            "buffer" : 0,
            "byteLength" : 912,
            "byteOffset" : 93312
        },
        {
            "buffer" : 0,
            "byteLength" : 95040,
            "byteOffset" : 94224
        },
        {
            "buffer" : 0,
            "byteLength" : 95040,
            "byteOffset" : 189264
        },
        {
            "buffer" : 0,
            "byteLength" : 63360,
            "byteOffset" : 284304
        },
        {
            "buffer" : 0,
            "byteLength" : 90624,
            "byteOffset" : 347664
        },
        {
            "buffer" : 0,
            "byteLength" : 5472,
            "byteOffset" : 438288
        },
        {
            "buffer" : 0,
            "byteLength" : 5472,
            "byteOffset" : 443760
        },
        {
            "buffer" : 0,
            "byteLength" : 1368,
            "byteOffset" : 449232
        },
        {
            "buffer" : 0,
            "byteLength" : 47520,
            "byteOffset" : 450600
        },
        {
            "buffer" : 0,
            "byteLength" : 47520,
            "byteOffset" : 498120
        },
        {
            "buffer" : 0,
            "byteLength" : 31680,
            "byteOffset" : 545640
        },
        {
            "buffer" : 0,
            "byteLength" : 45312,
            "byteOffset" : 577320
        },
        {
            "buffer" : 0,
            "byteLength" : 1824,
            "byteOffset" : 622632
        },
        {
            "buffer" : 0,
            "byteLength" : 1824,
            "byteOffset" : 624456
        },
        {
            "buffer" : 0,
            "byteLength" : 456,
            "byteOffset" : 626280
        }
    ],
    "buffers" : [
        {
            "byteLength" : 626736,
            "uri" : "data:application/octet-stream;base64,"
        }
    ]
}
